<?xml version="1.0" standalone="no"?>
<!DOCTYPE svg PUBLIC "-//W3C//DTD SVG 1.1//EN" "http://www.w3.org/Graphics/SVG/1.1/DTD/svg11.dtd">
<svg xmlns="http://www.w3.org/2000/svg" width="92" height="66" viewBox="0 0 92 66" fill="none">
<g clip-path="url(#clip0_108_635)">
<path opacity="0.4" fill-rule="evenodd" clip-rule="evenodd" d="M9.78089 32.9432C10.5413 23.9037 10.9215 19.384 12.7269 15.8669C14.8996 11.634 18.5102 8.31438 22.9104 6.50413C26.5664 5 31.1021 5 40.1735 5H51.8265C60.8979 5 65.4336 5 69.0896 6.50413C73.4898 8.31438 77.1004 11.634 79.2732 15.8669C81.0785 19.384 81.4587 23.9037 82.2191 32.9432C83.104 43.4617 83.5464 48.7212 82.0313 52.8662C80.2089 57.852 76.4791 61.9088 71.6636 64.1427C67.6601 66 62.3823 66 51.8265 66H40.1735C29.6178 66 24.3399 66 20.3365 64.1427C15.521 61.9088 11.7911 57.852 9.96869 52.8662C8.45358 48.7212 8.89601 43.4618 9.78089 32.9432ZM39 55C39 56.1046 38.1046 57 37 57H27C25.8954 57 25 56.1046 25 55C25 53.8954 25.8954 53 27 53H37C38.1046 53 39 53.8954 39 55ZM46 60C48.7614 60 51 57.7614 51 55C51 52.2386 48.7614 50 46 50C43.2386 50 41 52.2386 41 55C41 57.7614 43.2386 60 46 60ZM67 55C67 56.1046 66.1046 57 65 57H55C53.8954 57 53 56.1046 53 55C53 53.8954 53.8954 53 55 53H65C66.1046 53 67 53.8954 67 55ZM22.3571 21.2203C21.6211 22.9152 21.401 25.0212 20.9609 29.2333C20.4299 34.3155 20.1644 36.8566 20.6771 38.9087C21.6436 42.7775 24.469 45.9134 28.2164 47.2768C30.2041 48 32.759 48 37.8689 48H54.1311C59.241 48 61.7959 48 63.7836 47.2768C67.531 45.9134 70.3564 42.7775 71.323 38.9087C71.8356 36.8566 71.5701 34.3155 71.0391 29.2333C70.599 25.0213 70.3789 22.9152 69.6429 21.2203C68.2587 18.0325 65.5603 15.6014 62.2458 14.5559C60.4837 14 58.3662 14 54.1312 14H37.8689C33.6339 14 31.5163 14 29.7542 14.5559C26.4397 15.6014 23.7414 18.0325 22.3571 21.2203Z" fill="black"/>
<path fill-rule="evenodd" clip-rule="evenodd" d="M14 6C14 8.61244 12.3304 10.8349 10 11.6586L10 23C10.2557 23 10.5091 23.0096 10.76 23.0284C10.3977 25.6104 10.1292 28.8027 9.78088 32.9432C8.896 43.4619 8.45357 48.7212 9.96868 52.8662C9.98501 52.9109 10.0015 52.9555 10.0181 53L10 53C4.47715 53 0 48.5228 0 43V33C0 28.8994 2.46819 25.3752 6 23.8321L6 11.6586C3.66962 10.8349 2 8.61244 2 6C2 2.68629 4.68629 0 8 0C11.3137 0 14 2.68629 14 6ZM8 8.5C9.38071 8.5 10.5 7.38071 10.5 6C10.5 4.61929 9.38071 3.5 8 3.5C6.61929 3.5 5.5 4.61929 5.5 6C5.5 7.38071 6.61929 8.5 8 8.5Z" fill="#F4AA32"/>
<path fill-rule="evenodd" clip-rule="evenodd" d="M90 6C90 8.61244 88.3304 10.8349 86 11.6586V23.8321C89.5318 25.3752 92 28.8994 92 33V43C92 48.5229 87.5229 53 82 53L81.9819 53C81.9985 52.9555 82.015 52.9109 82.0313 52.8662C83.5464 48.7212 83.104 43.4619 82.2191 32.9432C81.8708 28.8027 81.6023 25.6104 81.24 23.0284C81.4909 23.0096 81.7443 23 82 23V11.6586C79.6696 10.8349 78 8.61244 78 6C78 2.68629 80.6863 0 84 0C87.3137 0 90 2.68629 90 6ZM84 8.5C85.3807 8.5 86.5 7.38071 86.5 6C86.5 4.61929 85.3807 3.5 84 3.5C82.6193 3.5 81.5 4.61929 81.5 6C81.5 7.38071 82.6193 8.5 84 8.5Z" fill="#F4AA32"/>
<path d="M58 31.5C58 35.0899 56.2091 38 54 38C51.7909 38 50 35.0899 50 31.5C50 27.9101 51.7909 25 54 25C56.2091 25 58 27.9101 58 31.5Z" fill="#F4AA32"/>
<path d="M38 38C40.2091 38 42 35.0899 42 31.5C42 27.9101 40.2091 25 38 25C35.7909 25 34 27.9101 34 31.5C34 35.0899 35.7909 38 38 38Z" fill="#F4AA32"/>
<path fill-rule="evenodd" clip-rule="evenodd" d="M56.8413 14.0077C59.3631 14.0321 60.907 14.1335 62.2458 14.5559C65.5603 15.6014 68.2587 18.0325 69.6429 21.2203C70.3789 22.9152 70.599 25.0212 71.0391 29.2332C71.5701 34.3154 71.8356 36.8566 71.323 38.9087C70.3564 42.7775 67.531 45.9134 63.7836 47.2768C61.7959 48 59.241 48 54.1311 48H37.8689C32.759 48 30.2041 48 28.2164 47.2768C24.469 45.9134 21.6436 42.7775 20.6771 38.9087C20.1644 36.8566 20.4299 34.3155 20.9609 29.2333C21.401 25.0212 21.6211 22.9152 22.3571 21.2203C23.7414 18.0325 26.4397 15.6014 29.7542 14.5559C31.093 14.1335 32.6369 14.0321 35.1587 14.0077C34.3541 12.4213 33.7568 10.8238 33.3212 9.46074C31.8568 4.87877 35.6346 1 39.8885 1H52.1115C56.3654 1 60.1432 4.87877 58.6788 9.46076C58.2432 10.8238 57.6458 12.4213 56.8413 14.0077ZM46 22C49.6277 22 52.3252 20.1498 54.2069 18C58.6737 18.0005 60.0195 18.0479 61.0425 18.3706C63.2522 19.0676 65.0511 20.6883 65.9739 22.8135C66.4036 23.803 66.5902 25.1461 67.0607 29.649C67.3312 32.2376 67.5143 34.0059 67.5765 35.387C67.6375 36.7441 67.5637 37.453 67.4422 37.9391C66.7978 40.5183 64.9143 42.6089 62.416 43.5179C61.9451 43.6892 61.2478 43.8363 59.8917 43.9166C58.5115 43.9984 56.7338 44 54.1311 44H37.8689C35.2662 44 33.4885 43.9984 32.1084 43.9166C30.7522 43.8363 30.0549 43.6892 29.584 43.5179C27.0857 42.6089 25.2022 40.5183 24.5578 37.9391C24.4363 37.453 24.3625 36.7441 24.4236 35.387C24.4857 34.0059 24.6688 32.2376 24.9393 29.649C25.4098 25.1461 25.5964 23.803 26.0261 22.8135C26.9489 20.6883 28.7479 19.0676 30.9575 18.3706C31.9805 18.0479 33.3263 18.0005 37.7931 18C39.6748 20.1499 42.3723 22 46 22Z" fill="#F4AA32"/>
<path fill-rule="evenodd" clip-rule="evenodd" d="M46 60C48.7614 60 51 57.7614 51 55C51 52.2386 48.7614 50 46 50C43.2386 50 41 52.2386 41 55C41 57.7614 43.2386 60 46 60ZM46 56.5C46.8284 56.5 47.5 55.8284 47.5 55C47.5 54.1716 46.8284 53.5 46 53.5C45.1716 53.5 44.5 54.1716 44.5 55C44.5 55.8284 45.1716 56.5 46 56.5Z" fill="#F4AA32"/>
<path d="M67 55C67 56.1046 66.1046 57 65 57H55C53.8954 57 53 56.1046 53 55C53 53.8954 53.8954 53 55 53H65C66.1046 53 67 53.8954 67 55Z" fill="#F4AA32"/>
<path d="M37 57C38.1046 57 39 56.1046 39 55C39 53.8954 38.1046 53 37 53H27C25.8954 53 25 53.8954 25 55C25 56.1046 25.8954 57 27 57H37Z" fill="#F4AA32"/>
</g>
<defs>
<clipPath id="clip0_108_635">
<rect width="92" height="66" fill="white"/>
</clipPath>
</defs>
</svg>